<?xml version="1.0" encoding="UTF-8"?>
<svg version="1.1" xmlns="http://www.w3.org/2000/svg" viewBox="0 0 150 150">
<path d="M0 0 C1.02075623 0.00007553 2.04151245 0.00015106 3.09320068 0.00022888 C4.18811829 0.00539017 5.28303589 0.01055145 6.41113281 0.01586914 C8.10064056 0.01799156 8.10064056 0.01799156 9.82427979 0.02015686 C13.42096617 0.0257534 17.01759025 0.03830529 20.61425781 0.05102539 C23.053059 0.05604084 25.49186116 0.06060367 27.93066406 0.06469727 C33.90855264 0.0757217 39.88639467 0.09298399 45.86425781 0.11352539 C45.86425781 5.72352539 45.86425781 11.33352539 45.86425781 17.11352539 C44.51678467 17.12810791 43.16931152 17.14269043 41.78100586 17.15771484 C36.78805827 17.21562838 31.79556498 17.29286167 26.80297852 17.37597656 C24.64094407 17.40925861 22.47882204 17.43728024 20.31665039 17.45996094 C17.21104564 17.49344647 14.10624583 17.54575939 11.00097656 17.60180664 C10.03214035 17.60819656 9.06330414 17.61458649 8.06510925 17.62117004 C6.71404839 17.65086128 6.71404839 17.65086128 5.33569336 17.68115234 C4.54293503 17.6922554 3.7501767 17.70335846 2.93339539 17.71479797 C0.32110241 18.21819265 -0.57554188 18.98015031 -2.13574219 21.11352539 C-2.55247426 24.6555218 -2.55247426 24.6555218 -2.13574219 28.11352539 C0.30184689 30.55111447 0.96759925 30.37751459 4.31396484 30.43237305 C5.23476837 30.45224274 6.1555719 30.47211243 7.10427856 30.49258423 C8.10014984 30.50413544 9.09602112 30.51568665 10.12207031 30.52758789 C11.64935257 30.55663712 11.64935257 30.55663712 13.20748901 30.58627319 C16.4679927 30.64617894 19.72853148 30.69249838 22.98925781 30.73852539 C25.19630468 30.77669504 27.4033365 30.81574616 29.61035156 30.85571289 C35.0281984 30.95188953 40.44611498 31.03587986 45.86425781 31.11352539 C45.86425781 37.05352539 45.86425781 42.99352539 45.86425781 49.11352539 C30.35425781 49.44352539 14.84425781 49.77352539 -1.13574219 50.11352539 C-2.62871431 53.09946963 -2.25329446 55.82206163 -2.13574219 59.11352539 C-1.80574219 59.77352539 -1.47574219 60.43352539 -1.13574219 61.11352539 C22.12925781 61.60852539 22.12925781 61.60852539 45.86425781 62.11352539 C45.86425781 68.05352539 45.86425781 73.99352539 45.86425781 80.11352539 C38.72927106 80.1878442 31.59451114 80.24220815 24.45922852 80.27832031 C22.03340732 80.29337948 19.60761323 80.31383101 17.18188477 80.33984375 C13.68922219 80.37635242 10.19692056 80.39328092 6.70410156 80.40649414 C5.62466782 80.421978 4.54523407 80.43746185 3.43309021 80.45341492 C-3.95659644 80.45505568 -8.52736355 79.37925151 -14.82324219 75.42602539 C-19.97053984 70.27872774 -22.27534459 63.61106899 -22.38574219 56.42602539 C-22.37144588 52.47547839 -22.11581365 49.38012104 -20.57324219 45.73852539 C-18.65883317 40.91088525 -19.29312698 38.1952806 -21.19824219 33.48852539 C-23.35525017 25.72329667 -22.97475544 18.19961953 -19.27246094 11.01586914 C-16.24810769 5.95449446 -13.07237062 2.33837861 -7.30047607 0.54249573 C-4.81725451 0.05041289 -2.53209152 -0.00626755 0 0 Z " fill="#0069B4" transform="translate(63.1357421875,34.886474609375)"/>
<path d="M0 0 C1.88138672 0.05414063 1.88138672 0.05414063 3.80078125 0.109375 C5.22970703 0.17898438 5.22970703 0.17898438 6.6875 0.25 C6.6875 1.57 6.6875 2.89 6.6875 4.25 C6.12160156 4.38277344 5.55570313 4.51554688 4.97265625 4.65234375 C4.23917969 4.82894531 3.50570313 5.00554688 2.75 5.1875 C2.01910156 5.36152344 1.28820312 5.53554687 0.53515625 5.71484375 C-1.31219898 6.08887569 -1.31219898 6.08887569 -2.3125 7.25 C-2.41948909 8.78322246 -2.45871244 10.32124653 -2.47021484 11.8581543 C-2.48560806 13.33054817 -2.48560806 13.33054817 -2.50131226 14.83268738 C-2.50861359 15.90239273 -2.51591492 16.97209808 -2.5234375 18.07421875 C-2.5515158 20.32227279 -2.58018033 22.57031956 -2.609375 24.81835938 C-2.65059238 28.37556686 -2.68746393 31.93264024 -2.71386719 35.48999023 C-2.74151051 38.91418805 -2.78739655 42.33776188 -2.8359375 45.76171875 C-2.83919037 46.82130295 -2.84244324 47.88088715 -2.84579468 48.97257996 C-2.93662406 54.44081257 -3.13838784 58.57274175 -6.3125 63.25 C-8.5 64.625 -8.5 64.625 -10.3125 65.25 C-10.3125 65.91 -10.3125 66.57 -10.3125 67.25 C-9.714375 67.45625 -9.11625 67.6625 -8.5 67.875 C-5.2913148 69.89188784 -4.67462562 71.68950709 -3.3125 75.25 C-2.88094126 79.06823301 -2.89527004 82.86372444 -2.90625 86.703125 C-2.89541382 87.79969421 -2.88457764 88.89626343 -2.87341309 90.02606201 C-2.82757007 94.70613405 -2.81600747 99.38614956 -2.80126953 104.06640625 C-2.78564306 107.48718365 -2.75267075 110.90748825 -2.71875 114.328125 C-2.72177124 115.39266907 -2.72479248 116.45721313 -2.72790527 117.55401611 C-2.71779419 118.5355365 -2.70768311 119.51705688 -2.69726562 120.52832031 C-2.69521118 121.39402649 -2.69315674 122.25973267 -2.69104004 123.15167236 C-2.56612183 123.84412048 -2.44120361 124.5365686 -2.3125 125.25 C0.87512365 127.37508244 2.95262223 127.7520163 6.6875 128.25 C6.6875 129.57 6.6875 130.89 6.6875 132.25 C4.45941841 132.35853983 2.22980068 132.43583307 0 132.5 C-1.24136719 132.54640625 -2.48273437 132.5928125 -3.76171875 132.640625 C-8.18309373 132.15422511 -9.42276429 131.65017249 -12.3125 128.25 C-13.07041644 124.25006914 -12.98541932 120.28313844 -12.94921875 116.22265625 C-12.96478569 114.45105385 -12.96478569 114.45105385 -12.98066711 112.6436615 C-13.01040289 108.86631302 -13.00696635 105.08994463 -13 101.3125 C-13.0088915 97.53890115 -13.02485381 93.76556603 -13.0514679 89.99205017 C-13.06638338 87.64375726 -13.0701861 85.29536166 -13.06169128 82.94703674 C-13.06542252 81.87920456 -13.06915375 80.81137238 -13.07299805 79.71118164 C-13.07124069 78.77504532 -13.06948334 77.838909 -13.06767273 76.87440491 C-13.33809779 73.97560674 -14.01507654 71.85067353 -15.3125 69.25 C-17.32985205 67.90589738 -17.32985205 67.90589738 -19.3125 67.25 C-19.3125 66.59 -19.3125 65.93 -19.3125 65.25 C-18.69375 65.023125 -18.075 64.79625 -17.4375 64.5625 C-14.61752305 62.82074953 -14.31213585 61.37675609 -13.3125 58.25 C-13.02293214 55.59414135 -13.02293214 55.59414135 -13.07299805 52.78881836 C-13.0674012 51.18707008 -13.0674012 51.18707008 -13.06169128 49.55296326 C-13.06789238 47.8387191 -13.06789238 47.8387191 -13.07421875 46.08984375 C-13.05880692 43.66340582 -13.04250387 41.23697341 -13.02539062 38.81054688 C-13.00889707 34.98970348 -13.00003363 31.16926496 -13.00708008 27.34838867 C-13.00969145 23.65757369 -12.98164822 19.96799412 -12.94921875 16.27734375 C-12.95942551 15.13249008 -12.96963226 13.98763641 -12.98014832 12.80809021 C-12.88244982 4.92062454 -12.88244982 4.92062454 -9.99462891 1.52270508 C-6.4909574 -0.13983266 -3.86120059 -0.14434395 0 0 Z " fill="#0069B4" transform="translate(21.3125,8.75)"/>
<path d="M0 0 C2.22808159 -0.10853983 4.45769932 -0.18583307 6.6875 -0.25 C7.92886719 -0.29640625 9.17023438 -0.3428125 10.44921875 -0.390625 C14.86892094 0.09559086 16.11176345 0.60110739 19 4 C19.7467412 7.98955479 19.64887396 11.94414784 19.6015625 15.9921875 C19.61357193 17.76023239 19.61357193 17.76023239 19.62582397 19.56399536 C19.64893251 23.33467846 19.63941588 27.10428736 19.625 30.875 C19.62115246 34.63837084 19.62460166 38.40126409 19.64559937 42.1645813 C19.65768412 44.5062475 19.65502704 46.84804752 19.63589478 49.18966675 C19.61902103 57.03671891 19.61902103 57.03671891 23 64 C24.485 64.495 24.485 64.495 26 65 C26 65.66 26 66.32 26 67 C25.38125 67.226875 24.7625 67.45375 24.125 67.6875 C21.30701564 69.42801975 21.00085306 70.87707117 20 74 C19.71066517 76.60806226 19.71066517 76.60806226 19.76049805 79.35351562 C19.7549012 80.92039124 19.7549012 80.92039124 19.74919128 82.5189209 C19.75332535 83.6367395 19.75745941 84.75455811 19.76171875 85.90625 C19.74630496 88.28255783 19.73000177 90.65886003 19.71289062 93.03515625 C19.69640926 96.77470329 19.6875261 100.51383743 19.69458008 104.25341797 C19.69719507 107.86733668 19.66912026 111.47999889 19.63671875 115.09375 C19.64692551 116.2115686 19.65713226 117.32938721 19.66764832 118.4810791 C19.57007671 126.20961452 19.57007671 126.20961452 16.68212891 130.21362305 C13.15587323 132.56221333 10.88547334 132.50866698 6.6875 132.3125 C5.43324219 132.26738281 4.17898437 132.22226563 2.88671875 132.17578125 C1.93410156 132.11777344 0.98148437 132.05976563 0 132 C0 130.68 0 129.36 0 128 C0.56589844 127.86722656 1.13179688 127.73445313 1.71484375 127.59765625 C2.81505859 127.33275391 2.81505859 127.33275391 3.9375 127.0625 C4.66839844 126.88847656 5.39929688 126.71445313 6.15234375 126.53515625 C7.99969898 126.16112431 7.99969898 126.16112431 9 125 C9.10186456 123.43594993 9.13568832 121.86740045 9.1418457 120.30004883 C9.15239738 118.79762383 9.15239738 118.79762383 9.16316223 117.2648468 C9.16940865 115.6274781 9.16940865 115.6274781 9.17578125 113.95703125 C9.19898642 111.66340235 9.22310404 109.36978254 9.24804688 107.07617188 C9.28313422 103.44647211 9.31248295 99.81710438 9.32592773 96.18725586 C9.34141559 92.69343367 9.38164315 89.20059369 9.42578125 85.70703125 C9.42387283 84.62557327 9.42196442 83.5441153 9.41999817 82.42988586 C9.51819167 76.37202151 9.81064398 72.53827096 14 68 C15.485 67.505 15.485 67.505 17 67 C17 66.34 17 65.68 17 65 C16.401875 64.79375 15.80375 64.5875 15.1875 64.375 C11.9788148 62.35811216 11.36212562 60.56049291 10 57 C9.56844126 53.18176699 9.58277004 49.38627556 9.59375 45.546875 C9.58291382 44.45030579 9.57207764 43.35373657 9.56091309 42.22393799 C9.51507007 37.54386595 9.50350747 32.86385044 9.48876953 28.18359375 C9.47314306 24.76281635 9.44017075 21.34251175 9.40625 17.921875 C9.41078186 16.3250589 9.41078186 16.3250589 9.41540527 14.69598389 C9.40529419 13.7144635 9.39518311 12.73294312 9.38476562 11.72167969 C9.38271118 10.85597351 9.38065674 9.99026733 9.37854004 9.09832764 C9.25362183 8.40587952 9.12870361 7.7134314 9 7 C5.81237635 4.87491756 3.73487777 4.4979837 0 4 C0 2.68 0 1.36 0 0 Z " fill="#0069B4" transform="translate(122,9)"/>
</svg>
